<svg width="1440" height="715" viewBox="0 0 1440 715" fill="none" xmlns="http://www.w3.org/2000/svg">
<g clip-path="url(#clip0_1111_1206)">
<g clip-path="url(#clip1_1111_1206)">
<g opacity="0.4">
<path d="M1064.11 21.4926C1091.28 21.4926 1113.32 18.6179 1113.32 15.0718C1113.32 11.5257 1091.28 8.65097 1064.11 8.65097C1036.93 8.65097 1014.9 11.5257 1014.9 15.0718C1014.9 18.6179 1036.93 21.4926 1064.11 21.4926Z" fill="#070606"/>
<path d="M1092.15 26.7799C1114.37 26.7799 1132.38 24.5817 1132.38 21.8701C1132.38 19.1584 1114.37 16.9602 1092.15 16.9602C1069.92 16.9602 1051.91 19.1584 1051.91 21.8701C1051.91 24.5817 1069.92 26.7799 1092.15 26.7799Z" fill="#070606"/>
<path d="M947.882 47.2081C968.034 47.2081 984.37 45.4718 984.37 43.3299C984.37 41.188 968.034 39.4517 947.882 39.4517C927.729 39.4517 911.393 41.188 911.393 43.3299C911.393 45.4718 927.729 47.2081 947.882 47.2081Z" fill="#070606"/>
<path d="M1386 13.7645C1394.87 13.7645 1402.07 12.4753 1402.07 10.885C1402.07 9.29475 1394.87 8.00558 1386 8.00558C1377.12 8.00558 1369.93 9.29475 1369.93 10.885C1369.93 12.4753 1377.12 13.7645 1386 13.7645Z" fill="#070606"/>
<path d="M1318.94 51.0354C1351.64 51.0354 1378.15 48.5495 1378.15 45.4831C1378.15 42.4166 1351.64 39.9308 1318.94 39.9308C1286.24 39.9308 1259.73 42.4166 1259.73 45.4831C1259.73 48.5495 1286.24 51.0354 1318.94 51.0354Z" fill="#070606"/>
<path d="M1293.51 42.4867C1306.21 42.4867 1316.5 40.8493 1316.5 38.8294C1316.5 36.8095 1306.21 35.172 1293.51 35.172C1280.81 35.172 1270.52 36.8095 1270.52 38.8294C1270.52 40.8493 1280.81 42.4867 1293.51 42.4867Z" fill="#070606"/>
</g>
</g>
<path fill-rule="evenodd" clip-rule="evenodd" d="M818.428 187.932C820.691 187.194 821.936 186.389 821.936 185.546C821.936 182 799.904 179.125 772.727 179.125C745.55 179.125 723.518 182 723.518 185.546C723.518 188.555 739.383 191.081 760.796 191.777C760.62 191.963 760.53 192.152 760.53 192.344C760.53 195.056 778.544 197.254 800.766 197.254C822.988 197.254 841.003 195.056 841.003 192.344C841.003 190.406 831.796 188.73 818.428 187.932Z" fill="#070606" fill-opacity="0.26"/>
<g opacity="0.25">
<path d="M1024.56 236.998C1051.74 236.998 1073.77 234.124 1073.77 230.578C1073.77 227.031 1051.74 224.157 1024.56 224.157C997.382 224.157 975.35 227.031 975.35 230.578C975.35 234.124 997.382 236.998 1024.56 236.998Z" fill="#070606"/>
<path d="M1052.6 242.286C1074.82 242.286 1092.84 240.087 1092.84 237.376C1092.84 234.664 1074.82 232.466 1052.6 232.466C1030.38 232.466 1012.36 234.664 1012.36 237.376C1012.36 240.087 1030.38 242.286 1052.6 242.286Z" fill="#070606"/>
</g>
<g clip-path="url(#clip2_1111_1206)">
<g opacity="0.6">
<path d="M671.019 51.6542C671.659 51.6542 672.177 50.7413 672.177 49.6152C672.177 48.4891 671.659 47.5762 671.019 47.5762C670.379 47.5762 669.86 48.4891 669.86 49.6152C669.86 50.7413 670.379 51.6542 671.019 51.6542Z" fill="url(#paint0_linear_1111_1206)"/>
<path d="M491.814 216.132C492.454 216.132 492.973 215.219 492.973 214.093C492.973 212.967 492.454 212.054 491.814 212.054C491.174 212.054 490.655 212.967 490.655 214.093C490.655 215.219 491.174 216.132 491.814 216.132Z" fill="url(#paint1_linear_1111_1206)"/>
<path d="M508.807 4.07796C509.447 4.07796 509.966 3.16508 509.966 2.03898C509.966 0.912882 509.447 0 508.807 0C508.167 0 507.649 0.912882 507.649 2.03898C507.649 3.16508 508.167 4.07796 508.807 4.07796Z" fill="url(#paint2_linear_1111_1206)"/>
<path d="M703.461 218.85C704.101 218.85 704.62 217.938 704.62 216.812C704.62 215.685 704.101 214.773 703.461 214.773C702.821 214.773 702.302 215.685 702.302 216.812C702.302 217.938 702.821 218.85 703.461 218.85Z" fill="url(#paint3_linear_1111_1206)"/>
<path d="M901.977 74.7626C902.617 74.7626 903.135 73.8497 903.135 72.7236C903.135 71.5975 902.617 70.6846 901.977 70.6846C901.337 70.6846 900.818 71.5975 900.818 72.7236C900.818 73.8497 901.337 74.7626 901.977 74.7626Z" fill="url(#paint4_linear_1111_1206)"/>
<path d="M970.723 175.352C971.363 175.352 971.882 174.439 971.882 173.313C971.882 172.187 971.363 171.274 970.723 171.274C970.084 171.274 969.565 172.187 969.565 173.313C969.565 174.439 970.084 175.352 970.723 175.352Z" fill="url(#paint5_linear_1111_1206)"/>
<path d="M1067.28 293.613C1067.92 293.613 1068.44 292.7 1068.44 291.574C1068.44 290.448 1067.92 289.535 1067.28 289.535C1066.64 289.535 1066.12 290.448 1066.12 291.574C1066.12 292.7 1066.64 293.613 1067.28 293.613Z" fill="url(#paint6_linear_1111_1206)"/>
<path d="M922.833 527.416C923.473 527.416 923.991 526.503 923.991 525.377C923.991 524.251 923.473 523.338 922.833 523.338C922.193 523.338 921.674 524.251 921.674 525.377C921.674 526.503 922.193 527.416 922.833 527.416Z" fill="url(#paint7_linear_1111_1206)"/>
<path d="M769.89 413.233C770.53 413.233 771.049 412.32 771.049 411.194C771.049 410.068 770.53 409.155 769.89 409.155C769.25 409.155 768.732 410.068 768.732 411.194C768.732 412.32 769.25 413.233 769.89 413.233Z" fill="url(#paint8_linear_1111_1206)"/>
<path d="M612.314 439.06C612.954 439.06 613.472 438.147 613.472 437.021C613.472 435.895 612.954 434.982 612.314 434.982C611.674 434.982 611.155 435.895 611.155 437.021C611.155 438.147 611.674 439.06 612.314 439.06Z" fill="url(#paint9_linear_1111_1206)"/>
<path d="M834.003 617.131C834.642 617.131 835.161 616.218 835.161 615.092C835.161 613.966 834.642 613.053 834.003 613.053C833.363 613.053 832.844 613.966 832.844 615.092C832.844 616.218 833.363 617.131 834.003 617.131Z" fill="url(#paint10_linear_1111_1206)"/>
<path d="M675.653 584.508C676.293 584.508 676.812 583.595 676.812 582.469C676.812 581.342 676.293 580.43 675.653 580.43C675.013 580.43 674.495 581.342 674.495 582.469C674.495 583.595 675.013 584.508 675.653 584.508Z" fill="url(#paint11_linear_1111_1206)"/>
<path d="M468.641 422.748C469.281 422.748 469.799 421.836 469.799 420.709C469.799 419.583 469.281 418.67 468.641 418.67C468.001 418.67 467.482 419.583 467.482 420.709C467.482 421.836 468.001 422.748 468.641 422.748Z" fill="url(#paint12_linear_1111_1206)"/>
<path d="M141.901 437.701C142.541 437.701 143.059 436.788 143.059 435.662C143.059 434.536 142.541 433.623 141.901 433.623C141.261 433.623 140.742 434.536 140.742 435.662C140.742 436.788 141.261 437.701 141.901 437.701Z" fill="url(#paint13_linear_1111_1206)"/>
<path d="M342.734 144.088C343.374 144.088 343.893 143.175 343.893 142.049C343.893 140.923 343.374 140.01 342.734 140.01C342.094 140.01 341.575 140.923 341.575 142.049C341.575 143.175 342.094 144.088 342.734 144.088Z" fill="url(#paint14_linear_1111_1206)"/>
<path d="M263.946 449.935C264.585 449.935 265.104 449.022 265.104 447.896C265.104 446.77 264.585 445.857 263.946 445.857C263.306 445.857 262.787 446.77 262.787 447.896C262.787 449.022 263.306 449.935 263.946 449.935Z" fill="url(#paint15_linear_1111_1206)"/>
<path d="M864.127 228.366C864.767 228.366 865.286 227.453 865.286 226.327C865.286 225.201 864.767 224.288 864.127 224.288C863.487 224.288 862.969 225.201 862.969 226.327C862.969 227.453 863.487 228.366 864.127 228.366Z" fill="url(#paint16_linear_1111_1206)"/>
<path d="M1182.37 133.213C1183.01 133.213 1183.53 132.3 1183.53 131.174C1183.53 130.048 1183.01 129.135 1182.37 129.135C1181.73 129.135 1181.21 130.048 1181.21 131.174C1181.21 132.3 1181.73 133.213 1182.37 133.213Z" fill="url(#paint17_linear_1111_1206)"/>
<path d="M1240.3 430.904C1240.94 430.904 1241.46 429.991 1241.46 428.865C1241.46 427.739 1240.94 426.826 1240.3 426.826C1239.66 426.826 1239.14 427.739 1239.14 428.865C1239.14 429.991 1239.66 430.904 1240.3 430.904Z" fill="url(#paint18_linear_1111_1206)"/>
<path d="M1073.46 523.338C1074.1 523.338 1074.62 522.425 1074.62 521.299C1074.62 520.173 1074.1 519.26 1073.46 519.26C1072.82 519.26 1072.3 520.173 1072.3 521.299C1072.3 522.425 1072.82 523.338 1073.46 523.338Z" fill="url(#paint19_linear_1111_1206)"/>
<path d="M823.961 83.5982C824.387 83.5982 824.733 82.9896 824.733 82.2388C824.733 81.4881 824.387 80.8795 823.961 80.8795C823.534 80.8795 823.188 81.4881 823.188 82.2388C823.188 82.9896 823.534 83.5982 823.961 83.5982Z" fill="url(#paint20_linear_1111_1206)"/>
<path d="M732.814 108.066C733.24 108.066 733.586 107.457 733.586 106.707C733.586 105.956 733.24 105.347 732.814 105.347C732.387 105.347 732.041 105.956 732.041 106.707C732.041 107.457 732.387 108.066 732.814 108.066Z" fill="url(#paint21_linear_1111_1206)"/>
<path d="M559.788 125.737C560.215 125.737 560.561 125.128 560.561 124.378C560.561 123.627 560.215 123.018 559.788 123.018C559.362 123.018 559.016 123.627 559.016 124.378C559.016 125.128 559.362 125.737 559.788 125.737Z" fill="url(#paint22_linear_1111_1206)"/>
<path d="M436.971 295.652C437.398 295.652 437.743 295.043 437.743 294.293C437.743 293.542 437.398 292.933 436.971 292.933C436.544 292.933 436.198 293.542 436.198 294.293C436.198 295.043 436.544 295.652 436.971 295.652Z" fill="url(#paint23_linear_1111_1206)"/>
<path d="M212.965 142.049C213.391 142.049 213.737 141.44 213.737 140.69C213.737 139.939 213.391 139.33 212.965 139.33C212.538 139.33 212.192 139.939 212.192 140.69C212.192 141.44 212.538 142.049 212.965 142.049Z" fill="url(#paint24_linear_1111_1206)"/>
<path d="M178.978 370.415C179.404 370.415 179.75 369.806 179.75 369.055C179.75 368.305 179.404 367.696 178.978 367.696C178.551 367.696 178.205 368.305 178.205 369.055C178.205 369.806 178.551 370.415 178.978 370.415Z" fill="url(#paint25_linear_1111_1206)"/>
<path d="M315.699 307.886C316.125 307.886 316.471 307.277 316.471 306.527C316.471 305.776 316.125 305.167 315.699 305.167C315.272 305.167 314.926 305.776 314.926 306.527C314.926 307.277 315.272 307.886 315.699 307.886Z" fill="url(#paint26_linear_1111_1206)"/>
<path d="M382.128 498.191C382.555 498.191 382.901 497.582 382.901 496.831C382.901 496.081 382.555 495.472 382.128 495.472C381.701 495.472 381.356 496.081 381.356 496.831C381.356 497.582 381.701 498.191 382.128 498.191Z" fill="url(#paint27_linear_1111_1206)"/>
<path d="M483.317 631.404C483.744 631.404 484.09 630.795 484.09 630.045C484.09 629.294 483.744 628.685 483.317 628.685C482.891 628.685 482.545 629.294 482.545 630.045C482.545 630.795 482.891 631.404 483.317 631.404Z" fill="url(#paint28_linear_1111_1206)"/>
<path d="M561.333 540.33C561.76 540.33 562.105 539.721 562.105 538.97C562.105 538.22 561.76 537.611 561.333 537.611C560.906 537.611 560.561 538.22 560.561 538.97C560.561 539.721 560.906 540.33 561.333 540.33Z" fill="url(#paint29_linear_1111_1206)"/>
<path d="M712.73 460.13C713.157 460.13 713.503 459.521 713.503 458.77C713.503 458.02 713.157 457.411 712.73 457.411C712.304 457.411 711.958 458.02 711.958 458.77C711.958 459.521 712.304 460.13 712.73 460.13Z" fill="url(#paint30_linear_1111_1206)"/>
<path d="M634.714 279.34C635.141 279.34 635.487 278.732 635.487 277.981C635.487 277.23 635.141 276.622 634.714 276.622C634.288 276.622 633.942 277.23 633.942 277.981C633.942 278.732 634.288 279.34 634.714 279.34Z" fill="url(#paint31_linear_1111_1206)"/>
<path d="M499.538 302.449C499.965 302.449 500.311 301.84 500.311 301.089C500.311 300.339 499.965 299.73 499.538 299.73C499.112 299.73 498.766 300.339 498.766 301.089C498.766 301.84 499.112 302.449 499.538 302.449Z" fill="url(#paint32_linear_1111_1206)"/>
<path d="M729.724 298.371C730.15 298.371 730.496 297.762 730.496 297.011C730.496 296.261 730.15 295.652 729.724 295.652C729.297 295.652 728.951 296.261 728.951 297.011C728.951 297.762 729.297 298.371 729.724 298.371Z" fill="url(#paint33_linear_1111_1206)"/>
<path d="M890.39 438.381C890.817 438.381 891.163 437.772 891.163 437.021C891.163 436.271 890.817 435.662 890.39 435.662C889.964 435.662 889.618 436.271 889.618 437.021C889.618 437.772 889.964 438.381 890.39 438.381Z" fill="url(#paint34_linear_1111_1206)"/>
<path d="M881.121 106.707C881.548 106.707 881.893 106.098 881.893 105.347C881.893 104.597 881.548 103.988 881.121 103.988C880.694 103.988 880.349 104.597 880.349 105.347C880.349 106.098 880.694 106.707 881.121 106.707Z" fill="url(#paint35_linear_1111_1206)"/>
<path d="M1012.43 362.259C1012.86 362.259 1013.21 361.65 1013.21 360.899C1013.21 360.149 1012.86 359.54 1012.43 359.54C1012.01 359.54 1011.66 360.149 1011.66 360.899C1011.66 361.65 1012.01 362.259 1012.43 362.259Z" fill="url(#paint36_linear_1111_1206)"/>
<path d="M1101.26 114.863C1101.69 114.863 1102.04 114.254 1102.04 113.503C1102.04 112.752 1101.69 112.144 1101.26 112.144C1100.84 112.144 1100.49 112.752 1100.49 113.503C1100.49 114.254 1100.84 114.863 1101.26 114.863Z" fill="url(#paint37_linear_1111_1206)"/>
<path d="M1014.75 29.2254C1015.18 29.2254 1015.52 28.6168 1015.52 27.8661C1015.52 27.1153 1015.18 26.5067 1014.75 26.5067C1014.33 26.5067 1013.98 27.1153 1013.98 27.8661C1013.98 28.6168 1014.33 29.2254 1014.75 29.2254Z" fill="url(#paint38_linear_1111_1206)"/>
<path d="M1216.36 305.167C1216.78 305.167 1217.13 304.559 1217.13 303.808C1217.13 303.057 1216.78 302.449 1216.36 302.449C1215.93 302.449 1215.59 303.057 1215.59 303.808C1215.59 304.559 1215.93 305.167 1216.36 305.167Z" fill="url(#paint39_linear_1111_1206)"/>
<path d="M1282.79 193.703C1283.21 193.703 1283.56 193.094 1283.56 192.344C1283.56 191.593 1283.21 190.984 1282.79 190.984C1282.36 190.984 1282.01 191.593 1282.01 192.344C1282.01 193.094 1282.36 193.703 1282.79 193.703Z" fill="url(#paint40_linear_1111_1206)"/>
<path d="M1226.4 570.235C1226.83 570.235 1227.17 569.626 1227.17 568.875C1227.17 568.125 1226.83 567.516 1226.4 567.516C1225.97 567.516 1225.63 568.125 1225.63 568.875C1225.63 569.626 1225.97 570.235 1226.4 570.235Z" fill="url(#paint41_linear_1111_1206)"/>
<path d="M981.538 598.78C981.964 598.78 982.31 598.172 982.31 597.421C982.31 596.67 981.964 596.062 981.538 596.062C981.111 596.062 980.765 596.67 980.765 597.421C980.765 598.172 981.111 598.78 981.538 598.78Z" fill="url(#paint42_linear_1111_1206)"/>
<path d="M800.015 591.984C800.442 591.984 800.788 591.375 800.788 590.624C800.788 589.874 800.442 589.265 800.015 589.265C799.589 589.265 799.243 589.874 799.243 590.624C799.243 591.375 799.589 591.984 800.015 591.984Z" fill="url(#paint43_linear_1111_1206)"/>
<path d="M701.916 407.116C702.343 407.116 702.689 406.508 702.689 405.757C702.689 405.006 702.343 404.398 701.916 404.398C701.49 404.398 701.144 405.006 701.144 405.757C701.144 406.508 701.49 407.116 701.916 407.116Z" fill="url(#paint44_linear_1111_1206)"/>
<path d="M934.419 284.777C934.846 284.777 935.191 284.169 935.191 283.418C935.191 282.667 934.846 282.059 934.419 282.059C933.992 282.059 933.647 282.667 933.647 283.418C933.647 284.169 933.992 284.777 934.419 284.777Z" fill="url(#paint45_linear_1111_1206)"/>
<path d="M1052.6 552.563C1053.03 552.563 1053.37 551.955 1053.37 551.204C1053.37 550.453 1053.03 549.845 1052.6 549.845C1052.17 549.845 1051.83 550.453 1051.83 551.204C1051.83 551.955 1052.17 552.563 1052.6 552.563Z" fill="url(#paint46_linear_1111_1206)"/>
<path d="M1125.98 211.374C1126.41 211.374 1126.76 210.766 1126.76 210.015C1126.76 209.264 1126.41 208.656 1125.98 208.656C1125.56 208.656 1125.21 209.264 1125.21 210.015C1125.21 210.766 1125.56 211.374 1125.98 211.374Z" fill="url(#paint47_linear_1111_1206)"/>
<path d="M775.297 129.135C775.51 129.135 775.683 128.831 775.683 128.456C775.683 128.08 775.51 127.776 775.297 127.776C775.084 127.776 774.911 128.08 774.911 128.456C774.911 128.831 775.084 129.135 775.297 129.135Z" fill="url(#paint48_linear_1111_1206)"/>
<path d="M909.701 203.898C909.914 203.898 910.086 203.594 910.086 203.218C910.086 202.843 909.914 202.539 909.701 202.539C909.488 202.539 909.315 202.843 909.315 203.218C909.315 203.594 909.488 203.898 909.701 203.898Z" fill="url(#paint49_linear_1111_1206)"/>
<path d="M1032.52 88.3558C1032.73 88.3558 1032.9 88.0515 1032.9 87.6761C1032.9 87.3008 1032.73 86.9965 1032.52 86.9965C1032.3 86.9965 1032.13 87.3008 1032.13 87.6761C1032.13 88.0515 1032.3 88.3558 1032.52 88.3558Z" fill="url(#paint50_linear_1111_1206)"/>
<path d="M1164.6 40.7796C1164.82 40.7796 1164.99 40.4753 1164.99 40.0999C1164.99 39.7246 1164.82 39.4203 1164.6 39.4203C1164.39 39.4203 1164.22 39.7246 1164.22 40.0999C1164.22 40.4753 1164.39 40.7796 1164.6 40.7796Z" fill="url(#paint51_linear_1111_1206)"/>
<path d="M1247.25 243.318C1247.47 243.318 1247.64 243.014 1247.64 242.639C1247.64 242.263 1247.47 241.959 1247.25 241.959C1247.04 241.959 1246.87 242.263 1246.87 242.639C1246.87 243.014 1247.04 243.318 1247.25 243.318Z" fill="url(#paint52_linear_1111_1206)"/>
<path d="M1183.14 368.376C1183.36 368.376 1183.53 368.071 1183.53 367.696C1183.53 367.321 1183.36 367.016 1183.14 367.016C1182.93 367.016 1182.76 367.321 1182.76 367.696C1182.76 368.071 1182.93 368.376 1183.14 368.376Z" fill="url(#paint53_linear_1111_1206)"/>
<path d="M1297.46 432.264C1297.68 432.264 1297.85 431.959 1297.85 431.584C1297.85 431.209 1297.68 430.904 1297.46 430.904C1297.25 430.904 1297.08 431.209 1297.08 431.584C1297.08 431.959 1297.25 432.264 1297.46 432.264Z" fill="url(#paint54_linear_1111_1206)"/>
<path d="M1322.18 550.524C1322.39 550.524 1322.57 550.22 1322.57 549.845C1322.57 549.469 1322.39 549.165 1322.18 549.165C1321.97 549.165 1321.8 549.469 1321.8 549.845C1321.8 550.22 1321.97 550.524 1322.18 550.524Z" fill="url(#paint55_linear_1111_1206)"/>
<path d="M1190.09 489.355C1190.31 489.355 1190.48 489.051 1190.48 488.675C1190.48 488.3 1190.31 487.996 1190.09 487.996C1189.88 487.996 1189.71 488.3 1189.71 488.675C1189.71 489.051 1189.88 489.355 1190.09 489.355Z" fill="url(#paint56_linear_1111_1206)"/>
<path d="M1111.31 568.196C1111.52 568.196 1111.69 567.891 1111.69 567.516C1111.69 567.141 1111.52 566.836 1111.31 566.836C1111.09 566.836 1110.92 567.141 1110.92 567.516C1110.92 567.891 1111.09 568.196 1111.31 568.196Z" fill="url(#paint57_linear_1111_1206)"/>
<path d="M1034.84 596.741C1035.05 596.741 1035.22 596.437 1035.22 596.062C1035.22 595.686 1035.05 595.382 1034.84 595.382C1034.62 595.382 1034.45 595.686 1034.45 596.062C1034.45 596.437 1034.62 596.741 1034.84 596.741Z" fill="url(#paint58_linear_1111_1206)"/>
<path d="M94.7818 600.819C94.9948 600.819 95.1675 600.515 95.1675 600.14C95.1675 599.764 94.9948 599.46 94.7818 599.46C94.5688 599.46 94.3961 599.764 94.3961 600.14C94.3961 600.515 94.5688 600.819 94.7818 600.819Z" fill="url(#paint59_linear_1111_1206)"/>
<path d="M90.1472 286.816C90.3602 286.816 90.5329 286.512 90.5329 286.137C90.5329 285.761 90.3602 285.457 90.1472 285.457C89.9342 285.457 89.7615 285.761 89.7615 286.137C89.7615 286.512 89.9342 286.816 90.1472 286.816Z" fill="url(#paint60_linear_1111_1206)"/>
<path d="M179.75 65.2474C179.963 65.2474 180.135 64.9431 180.135 64.5677C180.135 64.1923 179.963 63.888 179.75 63.888C179.537 63.888 179.364 64.1923 179.364 64.5677C179.364 64.9431 179.537 65.2474 179.75 65.2474Z" fill="url(#paint61_linear_1111_1206)"/>
<path d="M256.993 265.067C257.206 265.067 257.379 264.763 257.379 264.388C257.379 264.012 257.206 263.708 256.993 263.708C256.78 263.708 256.607 264.012 256.607 264.388C256.607 264.763 256.78 265.067 256.993 265.067Z" fill="url(#paint62_linear_1111_1206)"/>
<path d="M104.823 122.339C105.036 122.339 105.209 122.034 105.209 121.659C105.209 121.284 105.036 120.979 104.823 120.979C104.61 120.979 104.438 121.284 104.438 121.659C104.438 122.034 104.61 122.339 104.823 122.339Z" fill="url(#paint63_linear_1111_1206)"/>
<path d="M225.323 592.663C225.536 592.663 225.709 592.359 225.709 591.984C225.709 591.608 225.536 591.304 225.323 591.304C225.11 591.304 224.938 591.608 224.938 591.984C224.938 592.359 225.11 592.663 225.323 592.663Z" fill="url(#paint64_linear_1111_1206)"/>
<path d="M79.3331 507.026C79.5461 507.026 79.7188 506.722 79.7188 506.347C79.7188 505.971 79.5461 505.667 79.3331 505.667C79.1201 505.667 78.9474 505.971 78.9474 506.347C78.9474 506.722 79.1201 507.026 79.3331 507.026Z" fill="url(#paint65_linear_1111_1206)"/>
<path d="M976.902 406.437C977.115 406.437 977.288 406.132 977.288 405.757C977.288 405.382 977.115 405.077 976.902 405.077C976.689 405.077 976.517 405.382 976.517 405.757C976.517 406.132 976.689 406.437 976.902 406.437Z" fill="url(#paint66_linear_1111_1206)"/>
<path d="M827.05 297.691C827.263 297.691 827.436 297.387 827.436 297.011C827.436 296.636 827.263 296.332 827.05 296.332C826.837 296.332 826.664 296.636 826.664 297.011C826.664 297.387 826.837 297.691 827.05 297.691Z" fill="url(#paint67_linear_1111_1206)"/>
<path d="M726.634 362.938C726.847 362.938 727.019 362.634 727.019 362.259C727.019 361.883 726.847 361.579 726.634 361.579C726.421 361.579 726.248 361.883 726.248 362.259C726.248 362.634 726.421 362.938 726.634 362.938Z" fill="url(#paint68_linear_1111_1206)"/>
<path d="M657.114 259.63C657.327 259.63 657.5 259.326 657.5 258.95C657.5 258.575 657.327 258.271 657.114 258.271C656.901 258.271 656.729 258.575 656.729 258.95C656.729 259.326 656.901 259.63 657.114 259.63Z" fill="url(#paint69_linear_1111_1206)"/>
<path d="M626.989 392.843C627.202 392.843 627.375 392.539 627.375 392.164C627.375 391.788 627.202 391.484 626.989 391.484C626.776 391.484 626.604 391.788 626.604 392.164C626.604 392.539 626.776 392.843 626.989 392.843Z" fill="url(#paint70_linear_1111_1206)"/>
<path d="M538.932 367.016C539.145 367.016 539.318 366.712 539.318 366.337C539.318 365.961 539.145 365.657 538.932 365.657C538.719 365.657 538.546 365.961 538.546 366.337C538.546 366.712 538.719 367.016 538.932 367.016Z" fill="url(#paint71_linear_1111_1206)"/>
<path d="M561.332 460.809C561.545 460.809 561.718 460.505 561.718 460.13C561.718 459.754 561.545 459.45 561.332 459.45C561.119 459.45 560.947 459.754 560.947 460.13C560.947 460.505 561.119 460.809 561.332 460.809Z" fill="url(#paint72_linear_1111_1206)"/>
<path d="M439.288 497.511C439.501 497.511 439.673 497.207 439.673 496.831C439.673 496.456 439.501 496.152 439.288 496.152C439.075 496.152 438.902 496.456 438.902 496.831C438.902 497.207 439.075 497.511 439.288 497.511Z" fill="url(#paint73_linear_1111_1206)"/>
<path d="M437.743 180.789C437.956 180.789 438.129 180.485 438.129 180.11C438.129 179.734 437.956 179.43 437.743 179.43C437.53 179.43 437.357 179.734 437.357 180.11C437.357 180.485 437.53 180.789 437.743 180.789Z" fill="url(#paint74_linear_1111_1206)"/>
<path d="M371.313 58.4508C371.527 58.4508 371.699 58.1465 371.699 57.7711C371.699 57.3957 371.527 57.0914 371.313 57.0914C371.1 57.0914 370.928 57.3957 370.928 57.7711C370.928 58.1465 371.1 58.4508 371.313 58.4508Z" fill="url(#paint75_linear_1111_1206)"/>
<path d="M368.224 258.271C368.437 258.271 368.609 257.966 368.609 257.591C368.609 257.216 368.437 256.911 368.224 256.911C368.011 256.911 367.838 257.216 367.838 257.591C367.838 257.966 368.011 258.271 368.224 258.271Z" fill="url(#paint76_linear_1111_1206)"/>
<path d="M290.208 326.237C290.421 326.237 290.593 325.932 290.593 325.557C290.593 325.182 290.421 324.877 290.208 324.877C289.995 324.877 289.822 325.182 289.822 325.557C289.822 325.932 289.995 326.237 290.208 326.237Z" fill="url(#paint77_linear_1111_1206)"/>
<path d="M1175.42 633.443C1176.06 633.443 1176.58 632.53 1176.58 631.404C1176.58 630.278 1176.06 629.365 1175.42 629.365C1174.78 629.365 1174.26 630.278 1174.26 631.404C1174.26 632.53 1174.78 633.443 1175.42 633.443Z" fill="url(#paint78_linear_1111_1206)"/>
<path d="M1013.21 585.867C1013.85 585.867 1014.37 584.954 1014.37 583.828C1014.37 582.702 1013.85 581.789 1013.21 581.789C1012.57 581.789 1012.05 582.702 1012.05 583.828C1012.05 584.954 1012.57 585.867 1013.21 585.867Z" fill="url(#paint79_linear_1111_1206)"/>
<path d="M344.278 576.352C344.491 576.352 344.664 576.047 344.664 575.672C344.664 575.296 344.491 574.992 344.278 574.992C344.065 574.992 343.893 575.296 343.893 575.672C343.893 576.047 344.065 576.352 344.278 576.352Z" fill="url(#paint80_linear_1111_1206)"/>
<path d="M1438.05 437.701C1438.69 437.701 1439.21 436.788 1439.21 435.662C1439.21 434.536 1438.69 433.623 1438.05 433.623C1437.41 433.623 1436.89 434.536 1436.89 435.662C1436.89 436.788 1437.41 437.701 1438.05 437.701Z" fill="url(#paint81_linear_1111_1206)"/>
<path d="M1316 449.935C1316.64 449.935 1317.16 449.022 1317.16 447.896C1317.16 446.77 1316.64 445.857 1316 445.857C1315.36 445.857 1314.84 446.77 1314.84 447.896C1314.84 449.022 1315.36 449.935 1316 449.935Z" fill="url(#paint82_linear_1111_1206)"/>
<path d="M1366.98 142.049C1367.41 142.049 1367.75 141.44 1367.75 140.69C1367.75 139.939 1367.41 139.33 1366.98 139.33C1366.56 139.33 1366.21 139.939 1366.21 140.69C1366.21 141.44 1366.56 142.049 1366.98 142.049Z" fill="url(#paint83_linear_1111_1206)"/>
<path d="M1400.97 370.415C1401.4 370.415 1401.74 369.806 1401.74 369.055C1401.74 368.305 1401.4 367.696 1400.97 367.696C1400.54 367.696 1400.2 368.305 1400.2 369.055C1400.2 369.806 1400.54 370.415 1400.97 370.415Z" fill="url(#paint84_linear_1111_1206)"/>
<path d="M1400.2 491.394C1400.62 491.394 1400.97 490.786 1400.97 490.035C1400.97 489.284 1400.62 488.675 1400.2 488.675C1399.77 488.675 1399.42 489.284 1399.42 490.035C1399.42 490.786 1399.77 491.394 1400.2 491.394Z" fill="url(#paint85_linear_1111_1206)"/>
<path d="M1400.2 65.2474C1400.41 65.2474 1400.58 64.9431 1400.58 64.5677C1400.58 64.1923 1400.41 63.888 1400.2 63.888C1399.98 63.888 1399.81 64.1923 1399.81 64.5677C1399.81 64.9431 1399.98 65.2474 1400.2 65.2474Z" fill="url(#paint86_linear_1111_1206)"/>
<path d="M1322.95 265.067C1323.17 265.067 1323.34 264.763 1323.34 264.388C1323.34 264.012 1323.17 263.708 1322.95 263.708C1322.74 263.708 1322.57 264.012 1322.57 264.388C1322.57 264.763 1322.74 265.067 1322.95 265.067Z" fill="url(#paint87_linear_1111_1206)"/>
<path d="M1354.62 592.663C1354.84 592.663 1355.01 592.359 1355.01 591.984C1355.01 591.608 1354.84 591.304 1354.62 591.304C1354.41 591.304 1354.24 591.608 1354.24 591.984C1354.24 592.359 1354.41 592.663 1354.62 592.663Z" fill="url(#paint88_linear_1111_1206)"/>
<path d="M1289.74 326.237C1289.95 326.237 1290.12 325.932 1290.12 325.557C1290.12 325.182 1289.95 324.877 1289.74 324.877C1289.53 324.877 1289.35 325.182 1289.35 325.557C1289.35 325.932 1289.53 326.237 1289.74 326.237Z" fill="url(#paint89_linear_1111_1206)"/>
<path d="M842.499 466.247C842.712 466.247 842.885 465.942 842.885 465.567C842.885 465.192 842.712 464.887 842.499 464.887C842.286 464.887 842.113 465.192 842.113 465.567C842.113 465.942 842.286 466.247 842.499 466.247Z" fill="url(#paint90_linear_1111_1206)"/>
<path d="M933.646 394.203C933.859 394.203 934.032 393.898 934.032 393.523C934.032 393.148 933.859 392.843 933.646 392.843C933.433 392.843 933.26 393.148 933.26 393.523C933.26 393.898 933.433 394.203 933.646 394.203Z" fill="url(#paint91_linear_1111_1206)"/>
<path d="M1108.99 456.731C1109.2 456.731 1109.37 456.427 1109.37 456.052C1109.37 455.676 1109.2 455.372 1108.99 455.372C1108.78 455.372 1108.6 455.676 1108.6 456.052C1108.6 456.427 1108.78 456.731 1108.99 456.731Z" fill="url(#paint92_linear_1111_1206)"/>
<path d="M1038.7 220.21C1038.91 220.21 1039.08 219.905 1039.08 219.53C1039.08 219.155 1038.91 218.85 1038.7 218.85C1038.48 218.85 1038.31 219.155 1038.31 219.53C1038.31 219.905 1038.48 220.21 1038.7 220.21Z" fill="url(#paint93_linear_1111_1206)"/>
</g>
<path fill-rule="evenodd" clip-rule="evenodd" d="M1277.02 191.91C1280.14 190.253 1281.85 188.443 1281.85 186.549C1281.85 178.58 1251.5 172.12 1214.05 172.12C1176.6 172.12 1146.24 178.58 1146.24 186.549C1146.24 193.311 1168.1 198.987 1197.6 200.551C1197.36 200.969 1197.24 201.395 1197.24 201.826C1197.24 207.92 1222.06 212.859 1252.68 212.859C1283.3 212.859 1308.13 207.92 1308.13 201.826C1308.13 197.47 1295.44 193.704 1277.02 191.91Z" fill="#070606" fill-opacity="0.29"/>
</g>
<path d="M1255.15 53.6475C1270.54 69.2611 1282.23 88.8208 1288.37 111.301C1307.61 181.827 1264.98 254.323 1193.13 273.225C1170.23 279.249 1147.13 279.092 1125.66 273.812C1158.57 307.185 1208.43 322.511 1257.38 309.634C1329.22 290.733 1371.85 218.236 1352.61 147.711C1339.5 99.6643 1301.04 64.9348 1255.15 53.6475Z" fill="#DDA562"/>
<path d="M817.455 528.369L826.449 372.26L819.454 264.185H797.469L819.454 179.125H897.402L925.383 254.678L908.395 259.682L925.383 316.221L983.345 327.229L1079.78 306.214L1152.73 372.26V351.246L1185.71 289.202H1287.14V271.69L1310.63 276.193V289.202H1332.11L1349.6 317.222V514.36H1137.74L817.455 528.369Z" fill="#1B1614"/>
<path d="M851.932 282.698L843.938 311.718L881.912 317.222L877.915 286.7L851.932 282.698Z" fill="#241E1B"/>
<path d="M1051.8 419.794L1042.81 455.819H1086.78L1080.78 423.796L1051.8 419.794Z" fill="#241E1B"/>
<path d="M1305.63 404.283L1299.63 367.257L1343.6 371.26L1339.61 404.283H1305.63Z" fill="#241E1B"/>
<path d="M65.7961 584.409L0 596.417V715H647.494C596.153 688.315 492.474 634.544 488.486 632.943C484.499 631.342 429.336 628.606 402.254 627.439L298.076 597.918L224.305 584.409L156.017 588.411L65.7961 584.409Z" fill="#272521"/>
<path d="M265.677 650.455H7.9753H4.48611V714.5H1438.54V487.841L1289.5 497.348L1104.08 509.857L968.001 497.348L796.034 518.362L734.723 543.88L601.137 626.438L265.677 650.455Z" fill="#3A3732"/>
<path d="M733.228 647.953C649.322 667.133 477.72 707.395 462.567 715H1439.04V478.334H1420.1L1045.76 609.426L733.228 647.953Z" fill="#555048"/>
</g>
<defs>
<linearGradient id="paint0_linear_1111_1206" x1="671.019" y1="-1.52923" x2="671.019" y2="749.091" gradientUnits="userSpaceOnUse">
<stop stop-color="white"/>
<stop offset="1" stop-color="white" stop-opacity="0"/>
</linearGradient>
<linearGradient id="paint1_linear_1111_1206" x1="491.814" y1="-1.52924" x2="491.814" y2="749.091" gradientUnits="userSpaceOnUse">
<stop stop-color="white"/>
<stop offset="1" stop-color="white" stop-opacity="0"/>
</linearGradient>
<linearGradient id="paint2_linear_1111_1206" x1="508.808" y1="-1.52923" x2="508.808" y2="749.091" gradientUnits="userSpaceOnUse">
<stop stop-color="white"/>
<stop offset="1" stop-color="white" stop-opacity="0"/>
</linearGradient>
<linearGradient id="paint3_linear_1111_1206" x1="703.461" y1="-1.52927" x2="703.461" y2="749.091" gradientUnits="userSpaceOnUse">
<stop stop-color="white"/>
<stop offset="1" stop-color="white" stop-opacity="0"/>
</linearGradient>
<linearGradient id="paint4_linear_1111_1206" x1="901.976" y1="-1.52924" x2="901.976" y2="749.091" gradientUnits="userSpaceOnUse">
<stop stop-color="white"/>
<stop offset="1" stop-color="white" stop-opacity="0"/>
</linearGradient>
<linearGradient id="paint5_linear_1111_1206" x1="970.723" y1="-1.52925" x2="970.723" y2="749.091" gradientUnits="userSpaceOnUse">
<stop stop-color="white"/>
<stop offset="1" stop-color="white" stop-opacity="0"/>
</linearGradient>
<linearGradient id="paint6_linear_1111_1206" x1="1067.28" y1="-1.52928" x2="1067.28" y2="749.091" gradientUnits="userSpaceOnUse">
<stop stop-color="white"/>
<stop offset="1" stop-color="white" stop-opacity="0"/>
</linearGradient>
<linearGradient id="paint7_linear_1111_1206" x1="922.832" y1="-1.52933" x2="922.832" y2="749.091" gradientUnits="userSpaceOnUse">
<stop stop-color="white"/>
<stop offset="1" stop-color="white" stop-opacity="0"/>
</linearGradient>
<linearGradient id="paint8_linear_1111_1206" x1="769.891" y1="-1.52923" x2="769.891" y2="749.091" gradientUnits="userSpaceOnUse">
<stop stop-color="white"/>
<stop offset="1" stop-color="white" stop-opacity="0"/>
</linearGradient>
<linearGradient id="paint9_linear_1111_1206" x1="612.314" y1="-1.52931" x2="612.314" y2="749.091" gradientUnits="userSpaceOnUse">
<stop stop-color="white"/>
<stop offset="1" stop-color="white" stop-opacity="0"/>
</linearGradient>
<linearGradient id="paint10_linear_1111_1206" x1="834.003" y1="-1.52933" x2="834.003" y2="749.091" gradientUnits="userSpaceOnUse">
<stop stop-color="white"/>
<stop offset="1" stop-color="white" stop-opacity="0"/>
</linearGradient>
<linearGradient id="paint11_linear_1111_1206" x1="675.654" y1="-1.52926" x2="675.654" y2="749.091" gradientUnits="userSpaceOnUse">
<stop stop-color="white"/>
<stop offset="1" stop-color="white" stop-opacity="0"/>
</linearGradient>
<linearGradient id="paint12_linear_1111_1206" x1="468.641" y1="-1.5293" x2="468.641" y2="749.091" gradientUnits="userSpaceOnUse">
<stop stop-color="white"/>
<stop offset="1" stop-color="white" stop-opacity="0"/>
</linearGradient>
<linearGradient id="paint13_linear_1111_1206" x1="141.901" y1="-1.52927" x2="141.901" y2="749.091" gradientUnits="userSpaceOnUse">
<stop stop-color="white"/>
<stop offset="1" stop-color="white" stop-opacity="0"/>
</linearGradient>
<linearGradient id="paint14_linear_1111_1206" x1="342.734" y1="-1.52923" x2="342.734" y2="749.091" gradientUnits="userSpaceOnUse">
<stop stop-color="white"/>
<stop offset="1" stop-color="white" stop-opacity="0"/>
</linearGradient>
<linearGradient id="paint15_linear_1111_1206" x1="263.946" y1="-1.52926" x2="263.946" y2="749.091" gradientUnits="userSpaceOnUse">
<stop stop-color="white"/>
<stop offset="1" stop-color="white" stop-opacity="0"/>
</linearGradient>
<linearGradient id="paint16_linear_1111_1206" x1="864.127" y1="-1.52923" x2="864.127" y2="749.091" gradientUnits="userSpaceOnUse">
<stop stop-color="white"/>
<stop offset="1" stop-color="white" stop-opacity="0"/>
</linearGradient>
<linearGradient id="paint17_linear_1111_1206" x1="1182.37" y1="-1.52925" x2="1182.37" y2="749.091" gradientUnits="userSpaceOnUse">
<stop stop-color="white"/>
<stop offset="1" stop-color="white" stop-opacity="0"/>
</linearGradient>
<linearGradient id="paint18_linear_1111_1206" x1="1240.3" y1="-1.52928" x2="1240.3" y2="749.091" gradientUnits="userSpaceOnUse">
<stop stop-color="white"/>
<stop offset="1" stop-color="white" stop-opacity="0"/>
</linearGradient>
<linearGradient id="paint19_linear_1111_1206" x1="1073.46" y1="-1.52925" x2="1073.46" y2="749.091" gradientUnits="userSpaceOnUse">
<stop stop-color="white"/>
<stop offset="1" stop-color="white" stop-opacity="0"/>
</linearGradient>
<linearGradient id="paint20_linear_1111_1206" x1="823.961" y1="-1.52924" x2="823.961" y2="749.091" gradientUnits="userSpaceOnUse">
<stop stop-color="white"/>
<stop offset="1" stop-color="white" stop-opacity="0"/>
</linearGradient>
<linearGradient id="paint21_linear_1111_1206" x1="732.814" y1="-1.52922" x2="732.814" y2="749.091" gradientUnits="userSpaceOnUse">
<stop stop-color="white"/>
<stop offset="1" stop-color="white" stop-opacity="0"/>
</linearGradient>
<linearGradient id="paint22_linear_1111_1206" x1="559.789" y1="-1.52923" x2="559.789" y2="749.091" gradientUnits="userSpaceOnUse">
<stop stop-color="white"/>
<stop offset="1" stop-color="white" stop-opacity="0"/>
</linearGradient>
<linearGradient id="paint23_linear_1111_1206" x1="436.971" y1="-1.52922" x2="436.971" y2="749.091" gradientUnits="userSpaceOnUse">
<stop stop-color="white"/>
<stop offset="1" stop-color="white" stop-opacity="0"/>
</linearGradient>
<linearGradient id="paint24_linear_1111_1206" x1="212.965" y1="-1.52924" x2="212.965" y2="749.091" gradientUnits="userSpaceOnUse">
<stop stop-color="white"/>
<stop offset="1" stop-color="white" stop-opacity="0"/>
</linearGradient>
<linearGradient id="paint25_linear_1111_1206" x1="178.978" y1="-1.52922" x2="178.978" y2="749.091" gradientUnits="userSpaceOnUse">
<stop stop-color="white"/>
<stop offset="1" stop-color="white" stop-opacity="0"/>
</linearGradient>
<linearGradient id="paint26_linear_1111_1206" x1="315.699" y1="-1.52927" x2="315.699" y2="749.091" gradientUnits="userSpaceOnUse">
<stop stop-color="white"/>
<stop offset="1" stop-color="white" stop-opacity="0"/>
</linearGradient>
<linearGradient id="paint27_linear_1111_1206" x1="382.128" y1="-1.52921" x2="382.128" y2="749.091" gradientUnits="userSpaceOnUse">
<stop stop-color="white"/>
<stop offset="1" stop-color="white" stop-opacity="0"/>
</linearGradient>
<linearGradient id="paint28_linear_1111_1206" x1="483.317" y1="-1.52921" x2="483.317" y2="749.091" gradientUnits="userSpaceOnUse">
<stop stop-color="white"/>
<stop offset="1" stop-color="white" stop-opacity="0"/>
</linearGradient>
<linearGradient id="paint29_linear_1111_1206" x1="561.333" y1="-1.52918" x2="561.333" y2="749.091" gradientUnits="userSpaceOnUse">
<stop stop-color="white"/>
<stop offset="1" stop-color="white" stop-opacity="0"/>
</linearGradient>
<linearGradient id="paint30_linear_1111_1206" x1="712.731" y1="-1.52915" x2="712.731" y2="749.091" gradientUnits="userSpaceOnUse">
<stop stop-color="white"/>
<stop offset="1" stop-color="white" stop-opacity="0"/>
</linearGradient>
<linearGradient id="paint31_linear_1111_1206" x1="634.715" y1="-1.5292" x2="634.715" y2="749.091" gradientUnits="userSpaceOnUse">
<stop stop-color="white"/>
<stop offset="1" stop-color="white" stop-opacity="0"/>
</linearGradient>
<linearGradient id="paint32_linear_1111_1206" x1="499.539" y1="-1.52924" x2="499.539" y2="749.091" gradientUnits="userSpaceOnUse">
<stop stop-color="white"/>
<stop offset="1" stop-color="white" stop-opacity="0"/>
</linearGradient>
<linearGradient id="paint33_linear_1111_1206" x1="729.724" y1="-1.52923" x2="729.724" y2="749.091" gradientUnits="userSpaceOnUse">
<stop stop-color="white"/>
<stop offset="1" stop-color="white" stop-opacity="0"/>
</linearGradient>
<linearGradient id="paint34_linear_1111_1206" x1="890.39" y1="-1.5292" x2="890.39" y2="749.091" gradientUnits="userSpaceOnUse">
<stop stop-color="white"/>
<stop offset="1" stop-color="white" stop-opacity="0"/>
</linearGradient>
<linearGradient id="paint35_linear_1111_1206" x1="881.121" y1="-1.52921" x2="881.121" y2="749.091" gradientUnits="userSpaceOnUse">
<stop stop-color="white"/>
<stop offset="1" stop-color="white" stop-opacity="0"/>
</linearGradient>
<linearGradient id="paint36_linear_1111_1206" x1="1012.43" y1="-1.52925" x2="1012.43" y2="749.091" gradientUnits="userSpaceOnUse">
<stop stop-color="white"/>
<stop offset="1" stop-color="white" stop-opacity="0"/>
</linearGradient>
<linearGradient id="paint37_linear_1111_1206" x1="1101.26" y1="-1.52922" x2="1101.26" y2="749.091" gradientUnits="userSpaceOnUse">
<stop stop-color="white"/>
<stop offset="1" stop-color="white" stop-opacity="0"/>
</linearGradient>
<linearGradient id="paint38_linear_1111_1206" x1="1014.75" y1="-1.52922" x2="1014.75" y2="749.091" gradientUnits="userSpaceOnUse">
<stop stop-color="white"/>
<stop offset="1" stop-color="white" stop-opacity="0"/>
</linearGradient>
<linearGradient id="paint39_linear_1111_1206" x1="1216.36" y1="-1.52925" x2="1216.36" y2="749.091" gradientUnits="userSpaceOnUse">
<stop stop-color="white"/>
<stop offset="1" stop-color="white" stop-opacity="0"/>
</linearGradient>
<linearGradient id="paint40_linear_1111_1206" x1="1282.79" y1="-1.52922" x2="1282.79" y2="749.091" gradientUnits="userSpaceOnUse">
<stop stop-color="white"/>
<stop offset="1" stop-color="white" stop-opacity="0"/>
</linearGradient>
<linearGradient id="paint41_linear_1111_1206" x1="1226.4" y1="-1.52921" x2="1226.4" y2="749.091" gradientUnits="userSpaceOnUse">
<stop stop-color="white"/>
<stop offset="1" stop-color="white" stop-opacity="0"/>
</linearGradient>
<linearGradient id="paint42_linear_1111_1206" x1="981.537" y1="-1.5292" x2="981.537" y2="749.091" gradientUnits="userSpaceOnUse">
<stop stop-color="white"/>
<stop offset="1" stop-color="white" stop-opacity="0"/>
</linearGradient>
<linearGradient id="paint43_linear_1111_1206" x1="800.016" y1="-1.52922" x2="800.016" y2="749.091" gradientUnits="userSpaceOnUse">
<stop stop-color="white"/>
<stop offset="1" stop-color="white" stop-opacity="0"/>
</linearGradient>
<linearGradient id="paint44_linear_1111_1206" x1="701.917" y1="-1.52925" x2="701.917" y2="749.091" gradientUnits="userSpaceOnUse">
<stop stop-color="white"/>
<stop offset="1" stop-color="white" stop-opacity="0"/>
</linearGradient>
<linearGradient id="paint45_linear_1111_1206" x1="934.419" y1="-1.52923" x2="934.419" y2="749.091" gradientUnits="userSpaceOnUse">
<stop stop-color="white"/>
<stop offset="1" stop-color="white" stop-opacity="0"/>
</linearGradient>
<linearGradient id="paint46_linear_1111_1206" x1="1052.6" y1="-1.52917" x2="1052.6" y2="749.091" gradientUnits="userSpaceOnUse">
<stop stop-color="white"/>
<stop offset="1" stop-color="white" stop-opacity="0"/>
</linearGradient>
<linearGradient id="paint47_linear_1111_1206" x1="1125.98" y1="-1.52924" x2="1125.98" y2="749.091" gradientUnits="userSpaceOnUse">
<stop stop-color="white"/>
<stop offset="1" stop-color="white" stop-opacity="0"/>
</linearGradient>
<linearGradient id="paint48_linear_1111_1206" x1="775.297" y1="-1.52922" x2="775.297" y2="749.091" gradientUnits="userSpaceOnUse">
<stop stop-color="white"/>
<stop offset="1" stop-color="white" stop-opacity="0"/>
</linearGradient>
<linearGradient id="paint49_linear_1111_1206" x1="909.7" y1="-1.52922" x2="909.7" y2="749.091" gradientUnits="userSpaceOnUse">
<stop stop-color="white"/>
<stop offset="1" stop-color="white" stop-opacity="0"/>
</linearGradient>
<linearGradient id="paint50_linear_1111_1206" x1="1032.52" y1="-1.52923" x2="1032.52" y2="749.091" gradientUnits="userSpaceOnUse">
<stop stop-color="white"/>
<stop offset="1" stop-color="white" stop-opacity="0"/>
</linearGradient>
<linearGradient id="paint51_linear_1111_1206" x1="1164.6" y1="-1.52922" x2="1164.6" y2="749.091" gradientUnits="userSpaceOnUse">
<stop stop-color="white"/>
<stop offset="1" stop-color="white" stop-opacity="0"/>
</linearGradient>
<linearGradient id="paint52_linear_1111_1206" x1="1247.25" y1="-1.52921" x2="1247.25" y2="749.091" gradientUnits="userSpaceOnUse">
<stop stop-color="white"/>
<stop offset="1" stop-color="white" stop-opacity="0"/>
</linearGradient>
<linearGradient id="paint53_linear_1111_1206" x1="1183.14" y1="-1.5292" x2="1183.14" y2="749.091" gradientUnits="userSpaceOnUse">
<stop stop-color="white"/>
<stop offset="1" stop-color="white" stop-opacity="0"/>
</linearGradient>
<linearGradient id="paint54_linear_1111_1206" x1="1297.46" y1="-1.52922" x2="1297.46" y2="749.091" gradientUnits="userSpaceOnUse">
<stop stop-color="white"/>
<stop offset="1" stop-color="white" stop-opacity="0"/>
</linearGradient>
<linearGradient id="paint55_linear_1111_1206" x1="1322.18" y1="-1.52921" x2="1322.18" y2="749.091" gradientUnits="userSpaceOnUse">
<stop stop-color="white"/>
<stop offset="1" stop-color="white" stop-opacity="0"/>
</linearGradient>
<linearGradient id="paint56_linear_1111_1206" x1="1190.09" y1="-1.52927" x2="1190.09" y2="749.091" gradientUnits="userSpaceOnUse">
<stop stop-color="white"/>
<stop offset="1" stop-color="white" stop-opacity="0"/>
</linearGradient>
<linearGradient id="paint57_linear_1111_1206" x1="1111.31" y1="-1.52919" x2="1111.31" y2="749.091" gradientUnits="userSpaceOnUse">
<stop stop-color="white"/>
<stop offset="1" stop-color="white" stop-opacity="0"/>
</linearGradient>
<linearGradient id="paint58_linear_1111_1206" x1="1034.83" y1="-1.52924" x2="1034.83" y2="749.091" gradientUnits="userSpaceOnUse">
<stop stop-color="white"/>
<stop offset="1" stop-color="white" stop-opacity="0"/>
</linearGradient>
<linearGradient id="paint59_linear_1111_1206" x1="94.7822" y1="-1.52926" x2="94.7822" y2="749.091" gradientUnits="userSpaceOnUse">
<stop stop-color="white"/>
<stop offset="1" stop-color="white" stop-opacity="0"/>
</linearGradient>
<linearGradient id="paint60_linear_1111_1206" x1="90.1476" y1="-1.52922" x2="90.1476" y2="749.091" gradientUnits="userSpaceOnUse">
<stop stop-color="white"/>
<stop offset="1" stop-color="white" stop-opacity="0"/>
</linearGradient>
<linearGradient id="paint61_linear_1111_1206" x1="179.75" y1="-1.52923" x2="179.75" y2="749.091" gradientUnits="userSpaceOnUse">
<stop stop-color="white"/>
<stop offset="1" stop-color="white" stop-opacity="0"/>
</linearGradient>
<linearGradient id="paint62_linear_1111_1206" x1="256.994" y1="-1.52924" x2="256.994" y2="749.091" gradientUnits="userSpaceOnUse">
<stop stop-color="white"/>
<stop offset="1" stop-color="white" stop-opacity="0"/>
</linearGradient>
<linearGradient id="paint63_linear_1111_1206" x1="104.824" y1="-1.52925" x2="104.824" y2="749.091" gradientUnits="userSpaceOnUse">
<stop stop-color="white"/>
<stop offset="1" stop-color="white" stop-opacity="0"/>
</linearGradient>
<linearGradient id="paint64_linear_1111_1206" x1="225.324" y1="-1.52922" x2="225.324" y2="749.091" gradientUnits="userSpaceOnUse">
<stop stop-color="white"/>
<stop offset="1" stop-color="white" stop-opacity="0"/>
</linearGradient>
<linearGradient id="paint65_linear_1111_1206" x1="79.3335" y1="-1.52914" x2="79.3335" y2="749.091" gradientUnits="userSpaceOnUse">
<stop stop-color="white"/>
<stop offset="1" stop-color="white" stop-opacity="0"/>
</linearGradient>
<linearGradient id="paint66_linear_1111_1206" x1="976.902" y1="-1.52921" x2="976.902" y2="749.091" gradientUnits="userSpaceOnUse">
<stop stop-color="white"/>
<stop offset="1" stop-color="white" stop-opacity="0"/>
</linearGradient>
<linearGradient id="paint67_linear_1111_1206" x1="827.05" y1="-1.52925" x2="827.05" y2="749.091" gradientUnits="userSpaceOnUse">
<stop stop-color="white"/>
<stop offset="1" stop-color="white" stop-opacity="0"/>
</linearGradient>
<linearGradient id="paint68_linear_1111_1206" x1="726.634" y1="-1.52923" x2="726.634" y2="749.091" gradientUnits="userSpaceOnUse">
<stop stop-color="white"/>
<stop offset="1" stop-color="white" stop-opacity="0"/>
</linearGradient>
<linearGradient id="paint69_linear_1111_1206" x1="657.115" y1="-1.52921" x2="657.115" y2="749.091" gradientUnits="userSpaceOnUse">
<stop stop-color="white"/>
<stop offset="1" stop-color="white" stop-opacity="0"/>
</linearGradient>
<linearGradient id="paint70_linear_1111_1206" x1="626.99" y1="-1.52917" x2="626.99" y2="749.091" gradientUnits="userSpaceOnUse">
<stop stop-color="white"/>
<stop offset="1" stop-color="white" stop-opacity="0"/>
</linearGradient>
<linearGradient id="paint71_linear_1111_1206" x1="538.932" y1="-1.52925" x2="538.932" y2="749.091" gradientUnits="userSpaceOnUse">
<stop stop-color="white"/>
<stop offset="1" stop-color="white" stop-opacity="0"/>
</linearGradient>
<linearGradient id="paint72_linear_1111_1206" x1="561.333" y1="-1.52922" x2="561.333" y2="749.091" gradientUnits="userSpaceOnUse">
<stop stop-color="white"/>
<stop offset="1" stop-color="white" stop-opacity="0"/>
</linearGradient>
<linearGradient id="paint73_linear_1111_1206" x1="439.288" y1="-1.52924" x2="439.288" y2="749.091" gradientUnits="userSpaceOnUse">
<stop stop-color="white"/>
<stop offset="1" stop-color="white" stop-opacity="0"/>
</linearGradient>
<linearGradient id="paint74_linear_1111_1206" x1="437.743" y1="-1.52926" x2="437.743" y2="749.091" gradientUnits="userSpaceOnUse">
<stop stop-color="white"/>
<stop offset="1" stop-color="white" stop-opacity="0"/>
</linearGradient>
<linearGradient id="paint75_linear_1111_1206" x1="371.314" y1="-1.52923" x2="371.314" y2="749.091" gradientUnits="userSpaceOnUse">
<stop stop-color="white"/>
<stop offset="1" stop-color="white" stop-opacity="0"/>
</linearGradient>
<linearGradient id="paint76_linear_1111_1206" x1="368.224" y1="-1.52928" x2="368.224" y2="749.091" gradientUnits="userSpaceOnUse">
<stop stop-color="white"/>
<stop offset="1" stop-color="white" stop-opacity="0"/>
</linearGradient>
<linearGradient id="paint77_linear_1111_1206" x1="290.208" y1="-1.5292" x2="290.208" y2="749.091" gradientUnits="userSpaceOnUse">
<stop stop-color="white"/>
<stop offset="1" stop-color="white" stop-opacity="0"/>
</linearGradient>
<linearGradient id="paint78_linear_1111_1206" x1="1175.42" y1="-1.52934" x2="1175.42" y2="749.091" gradientUnits="userSpaceOnUse">
<stop stop-color="white"/>
<stop offset="1" stop-color="white" stop-opacity="0"/>
</linearGradient>
<linearGradient id="paint79_linear_1111_1206" x1="1013.21" y1="-1.52925" x2="1013.21" y2="749.091" gradientUnits="userSpaceOnUse">
<stop stop-color="white"/>
<stop offset="1" stop-color="white" stop-opacity="0"/>
</linearGradient>
<linearGradient id="paint80_linear_1111_1206" x1="344.279" y1="-1.52928" x2="344.279" y2="749.091" gradientUnits="userSpaceOnUse">
<stop stop-color="white"/>
<stop offset="1" stop-color="white" stop-opacity="0"/>
</linearGradient>
<linearGradient id="paint81_linear_1111_1206" x1="1438.05" y1="-1.52927" x2="1438.05" y2="749.091" gradientUnits="userSpaceOnUse">
<stop stop-color="white"/>
<stop offset="1" stop-color="white" stop-opacity="0"/>
</linearGradient>
<linearGradient id="paint82_linear_1111_1206" x1="1316" y1="-1.52926" x2="1316" y2="749.091" gradientUnits="userSpaceOnUse">
<stop stop-color="white"/>
<stop offset="1" stop-color="white" stop-opacity="0"/>
</linearGradient>
<linearGradient id="paint83_linear_1111_1206" x1="1366.98" y1="-1.52924" x2="1366.98" y2="749.091" gradientUnits="userSpaceOnUse">
<stop stop-color="white"/>
<stop offset="1" stop-color="white" stop-opacity="0"/>
</linearGradient>
<linearGradient id="paint84_linear_1111_1206" x1="1400.97" y1="-1.52922" x2="1400.97" y2="749.091" gradientUnits="userSpaceOnUse">
<stop stop-color="white"/>
<stop offset="1" stop-color="white" stop-opacity="0"/>
</linearGradient>
<linearGradient id="paint85_linear_1111_1206" x1="1400.2" y1="-1.52917" x2="1400.2" y2="749.091" gradientUnits="userSpaceOnUse">
<stop stop-color="white"/>
<stop offset="1" stop-color="white" stop-opacity="0"/>
</linearGradient>
<linearGradient id="paint86_linear_1111_1206" x1="1400.2" y1="-1.52923" x2="1400.2" y2="749.091" gradientUnits="userSpaceOnUse">
<stop stop-color="white"/>
<stop offset="1" stop-color="white" stop-opacity="0"/>
</linearGradient>
<linearGradient id="paint87_linear_1111_1206" x1="1322.95" y1="-1.52924" x2="1322.95" y2="749.091" gradientUnits="userSpaceOnUse">
<stop stop-color="white"/>
<stop offset="1" stop-color="white" stop-opacity="0"/>
</linearGradient>
<linearGradient id="paint88_linear_1111_1206" x1="1354.62" y1="-1.52922" x2="1354.62" y2="749.091" gradientUnits="userSpaceOnUse">
<stop stop-color="white"/>
<stop offset="1" stop-color="white" stop-opacity="0"/>
</linearGradient>
<linearGradient id="paint89_linear_1111_1206" x1="1289.74" y1="-1.5292" x2="1289.74" y2="749.091" gradientUnits="userSpaceOnUse">
<stop stop-color="white"/>
<stop offset="1" stop-color="white" stop-opacity="0"/>
</linearGradient>
<linearGradient id="paint90_linear_1111_1206" x1="842.498" y1="-1.52922" x2="842.498" y2="749.091" gradientUnits="userSpaceOnUse">
<stop stop-color="white"/>
<stop offset="1" stop-color="white" stop-opacity="0"/>
</linearGradient>
<linearGradient id="paint91_linear_1111_1206" x1="933.646" y1="-1.52922" x2="933.646" y2="749.091" gradientUnits="userSpaceOnUse">
<stop stop-color="white"/>
<stop offset="1" stop-color="white" stop-opacity="0"/>
</linearGradient>
<linearGradient id="paint92_linear_1111_1206" x1="1108.99" y1="-1.52926" x2="1108.99" y2="749.091" gradientUnits="userSpaceOnUse">
<stop stop-color="white"/>
<stop offset="1" stop-color="white" stop-opacity="0"/>
</linearGradient>
<linearGradient id="paint93_linear_1111_1206" x1="1038.7" y1="-1.52925" x2="1038.7" y2="749.091" gradientUnits="userSpaceOnUse">
<stop stop-color="white"/>
<stop offset="1" stop-color="white" stop-opacity="0"/>
</linearGradient>
<clipPath id="clip0_1111_1206">
<rect width="1440" height="715" fill="white"/>
</clipPath>
<clipPath id="clip1_1111_1206">
<rect width="490.673" height="43.0301" fill="white" transform="translate(911.393 8.00558)"/>
</clipPath>
<clipPath id="clip2_1111_1206">
<rect width="1422.05" height="633.443" fill="white" transform="translate(78.9474)"/>
</clipPath>
</defs>
</svg>
