<svg width="237" height="250" viewBox="0 0 237 250" fill="none" xmlns="http://www.w3.org/2000/svg">
<path d="M22.1853 249.122L17.2934 244.274L44.022 217.772L0 174.118L4.89191 169.267L53.8041 217.772L22.1853 249.122Z" fill="white"/>
<path d="M236.15 214.341H48.912V221.201H236.15V214.341Z" fill="white"/>
<path d="M64.7187 5.02801C64.3823 2.01748 67.3485 -0.289663 70.2118 0.755898L109.077 14.9427L70.0707 52.2545L64.7187 5.02801Z" fill="#502D17"/>
<path d="M202.13 5.02801C202.47 2.01748 199.502 -0.289663 196.644 0.755898L157.772 14.9427L196.787 52.2545L202.13 5.02801Z" fill="#502D17"/>
<path d="M133.882 209.882C185.682 209.882 227.675 174.136 227.675 130.04C227.675 85.9436 185.682 50.1968 133.882 50.1968C82.081 50.1968 40.0883 85.9436 40.0883 130.04C40.0883 174.136 82.081 209.882 133.882 209.882Z" fill="#794422"/>
<path d="M211.489 108.232C211.489 167.779 176.742 216.054 133.879 216.054C91.0175 216.054 56.2722 167.779 56.2722 108.232C56.2722 48.6764 91.0175 0.400879 133.877 0.400879C176.742 0.400879 211.489 48.6764 211.489 108.232Z" fill="#502D17"/>
<path d="M102.548 112.428C122.536 112.428 138.739 94.1228 138.739 71.5423C138.739 48.9617 122.536 30.6565 102.548 30.6565C82.5594 30.6565 66.3558 48.9617 66.3558 71.5423C66.3558 94.1228 82.5594 112.428 102.548 112.428Z" fill="white"/>
<path d="M187.935 152.788C187.935 180.339 163.733 202.677 133.878 202.677C104.025 202.677 79.8251 180.339 79.8251 152.788C79.8251 125.228 104.025 102.889 133.878 102.889C163.733 102.891 187.935 125.228 187.935 152.788Z" fill="white"/>
<path d="M200.716 71.5421C200.716 94.1228 184.514 112.428 164.521 112.428C144.539 112.428 128.333 94.1245 128.333 71.5421C128.333 48.958 144.539 30.6511 164.521 30.6511C184.514 30.6494 200.716 48.958 200.716 71.5421Z" fill="white"/>
<path d="M130.907 85.4755C132.905 84.6944 135.142 84.7185 137.12 85.5394C143.431 88.1421 147.948 91.3393 151.918 95.9881C153.234 97.5314 153.312 99.7556 152.23 101.465C148.095 108.001 143.082 112.914 136.692 117.786C135.128 118.977 132.938 118.977 131.375 117.786C124.984 112.916 119.972 108.001 115.834 101.465C114.761 99.7712 114.855 97.5712 116.157 96.0434C120.28 91.2131 124.304 88.0522 130.907 85.4755Z" fill="#FE7D17"/>
<path d="M130.287 127.492C130.287 131.455 127.05 134.668 123.056 134.668C119.056 134.668 115.818 131.455 115.818 127.492H130.287Z" fill="#D6D6D6"/>
<path d="M152.265 127.492C152.265 131.455 149.027 134.668 145.029 134.668C141.032 134.668 137.794 131.455 137.794 127.492H152.265Z" fill="#D6D6D6"/>
<path d="M119.299 141.793C119.299 145.759 116.059 148.968 112.061 148.968C108.065 148.968 104.827 145.759 104.827 141.793H119.299Z" fill="#D6D6D6"/>
<path d="M141.273 141.793C141.273 145.759 138.037 148.968 134.041 148.968C130.045 148.968 126.803 145.759 126.803 141.793H141.273Z" fill="#D6D6D6"/>
<path d="M163.256 141.793C163.256 145.759 160.015 148.968 156.02 148.968C152.026 148.968 148.786 145.759 148.786 141.793H163.256Z" fill="#D6D6D6"/>
<path d="M108.308 155.78C108.308 159.748 105.072 162.956 101.074 162.956C97.0776 162.956 93.8413 159.748 93.8413 155.78H108.308Z" fill="#D6D6D6"/>
<path d="M130.287 155.78C130.287 159.748 127.05 162.956 123.056 162.956C119.056 162.956 115.818 159.748 115.818 155.78H130.287Z" fill="#D6D6D6"/>
<path d="M152.265 155.78C152.265 159.748 149.027 162.956 145.029 162.956C141.032 162.956 137.794 159.748 137.794 155.78H152.265Z" fill="#D6D6D6"/>
<path d="M174.24 155.78C174.24 159.748 171.004 162.956 167.008 162.956C163.011 162.956 159.772 159.748 159.772 155.78H174.24Z" fill="#D6D6D6"/>
<path d="M119.299 170.085C119.299 174.051 116.059 177.26 112.061 177.26C108.065 177.26 104.827 174.051 104.827 170.085H119.299Z" fill="#D6D6D6"/>
<path d="M141.273 170.085C141.273 174.051 138.037 177.26 134.041 177.26C130.045 177.26 126.803 174.051 126.803 170.085H141.273Z" fill="#D6D6D6"/>
<path d="M163.256 170.085C163.256 174.051 160.015 177.26 156.02 177.26C152.026 177.26 148.786 174.051 148.786 170.085H163.256Z" fill="#D6D6D6"/>
<path d="M130.287 184.073C130.287 188.039 127.05 191.248 123.056 191.248C119.056 191.248 115.818 188.039 115.818 184.073H130.287Z" fill="#D6D6D6"/>
<path d="M152.265 184.073C152.265 188.039 149.027 191.248 145.029 191.248C141.032 191.248 137.794 188.039 137.794 184.073H152.265Z" fill="#D6D6D6"/>
<path d="M107.275 87.8484C118.905 87.8484 128.334 78.4986 128.334 66.9649C128.334 55.4312 118.905 46.0813 107.275 46.0813C95.6438 46.0813 86.2152 55.4312 86.2152 66.9649C86.2152 78.4986 95.6438 87.8484 107.275 87.8484Z" fill="#C2DDEB"/>
<path d="M107.274 80.0328C114.551 80.0328 120.451 74.1825 120.451 66.9658C120.451 59.7492 114.551 53.8989 107.274 53.8989C99.9963 53.8989 94.0967 59.7492 94.0967 66.9658C94.0967 74.1825 99.9963 80.0328 107.274 80.0328Z" fill="black"/>
<path d="M110.593 66.964C113.286 66.964 115.469 64.799 115.469 62.1285C115.469 59.4579 113.286 57.293 110.593 57.293C107.9 57.293 105.717 59.4579 105.717 62.1285C105.717 64.799 107.9 66.964 110.593 66.964Z" fill="white"/>
<path d="M158.798 87.8512C170.431 87.8512 179.861 78.4998 179.861 66.9642C179.861 55.4286 170.431 46.0771 158.798 46.0771C147.165 46.0771 137.735 55.4286 137.735 66.9642C137.735 78.4998 147.165 87.8512 158.798 87.8512Z" fill="#C2DDEB"/>
<path d="M158.797 80.0325C166.074 80.0325 171.974 74.1823 171.974 66.9656C171.974 59.7489 166.074 53.8987 158.797 53.8987C151.519 53.8987 145.62 59.7489 145.62 66.9656C145.62 74.1823 151.519 80.0325 158.797 80.0325Z" fill="black"/>
<path d="M162.117 66.965C164.811 66.965 166.995 64.7993 166.995 62.1278C166.995 59.4562 164.811 57.2905 162.117 57.2905C159.423 57.2905 157.239 59.4562 157.239 62.1278C157.239 64.7993 159.423 66.965 162.117 66.965Z" fill="white"/>
<path d="M177.594 216.078C177.594 221.584 174.527 226.046 170.756 226.046C166.976 226.046 163.91 221.584 163.91 216.078C163.91 221.584 160.846 226.046 157.066 226.046C153.29 226.046 150.223 221.584 150.223 216.078C150.223 221.584 147.162 226.046 143.381 226.046C139.606 226.046 136.54 221.584 136.54 216.078C136.54 208.294 145.702 201.989 157.005 201.989C168.305 201.989 177.469 208.294 177.469 216.078H177.594Z" fill="#FE7D17"/>
<path d="M130.915 216.078C130.915 221.584 127.849 226.046 124.073 226.046C120.295 226.046 117.229 221.584 117.229 216.078C117.229 221.584 114.169 226.046 110.387 226.046C106.609 226.046 103.55 221.584 103.55 216.078C103.55 221.584 100.483 226.046 96.7047 226.046C92.9281 226.046 89.8644 221.584 89.8644 216.078C89.8644 208.294 99.026 201.989 110.328 201.989C121.631 201.989 130.798 208.294 130.798 216.078H130.915Z" fill="#FE7D17"/>
</svg>
