<svg width="74" height="73" viewBox="0 0 74 73" fill="none" xmlns="http://www.w3.org/2000/svg">
<path d="M6.95192 72.9995L5.419 71.5767L13.7946 63.7984L0 50.9859L1.53292 49.5621L16.8599 63.7984L6.95192 72.9995Z" fill="white"/>
<path d="M73.9995 62.7916H15.327V64.8047H73.9995V62.7916Z" fill="white"/>
<path d="M20.2802 1.35786C20.1748 0.474271 21.1042 -0.202876 22.0015 0.103996L34.1802 4.26782L21.9573 15.2188L20.2802 1.35786Z" fill="#502D17"/>
<path d="M63.3395 1.35786C63.446 0.474271 62.5159 -0.202876 61.6203 0.103996L49.4395 4.26782L61.6651 15.2188L63.3395 1.35786Z" fill="#502D17"/>
<path d="M41.9529 61.4824C58.185 61.4824 71.3437 50.9907 71.3437 38.0486C71.3437 25.1064 58.185 14.6147 41.9529 14.6147C25.7208 14.6147 12.5621 25.1064 12.5621 38.0486C12.5621 50.9907 25.7208 61.4824 41.9529 61.4824Z" fill="#794422"/>
<path d="M66.2721 31.6484C66.2721 49.1254 55.3838 63.2942 41.9524 63.2942C28.5214 63.2942 17.6337 49.1254 17.6337 31.6484C17.6337 14.1689 28.5214 0 41.9518 0C55.3838 0 66.2721 14.1689 66.2721 31.6484Z" fill="#502D17"/>
<path d="M32.1339 32.8799C38.3974 32.8799 43.4749 27.5074 43.4749 20.88C43.4749 14.2526 38.3974 8.88 32.1339 8.88C25.8705 8.88 20.793 14.2526 20.793 20.88C20.793 27.5074 25.8705 32.8799 32.1339 32.8799Z" fill="white"/>
<path d="M58.8909 44.7252C58.8909 52.8114 51.3071 59.3678 41.9518 59.3678C32.597 59.3678 25.0138 52.8114 25.0138 44.7252C25.0138 36.6365 32.597 30.08 41.9518 30.08C51.3071 30.0806 58.8909 36.6365 58.8909 44.7252Z" fill="white"/>
<path d="M62.896 20.88C62.896 27.5074 57.8189 32.8799 51.554 32.8799C45.2923 32.8799 40.2141 27.5079 40.2141 20.88C40.2141 14.2515 45.2923 8.87848 51.554 8.87848C57.8189 8.87797 62.896 14.2515 62.896 20.88Z" fill="white"/>
<path d="M41.0212 24.9692C41.6471 24.74 42.3483 24.7471 42.9681 24.988C44.9456 25.7519 46.3611 26.6902 47.6051 28.0547C48.0174 28.5076 48.042 29.1604 47.7028 29.6621C46.4069 31.5804 44.8363 33.0225 42.8338 34.4523C42.3439 34.8018 41.6575 34.8018 41.1676 34.4523C39.165 33.023 37.5944 31.5804 36.298 29.6621C35.9616 29.165 35.9911 28.5193 36.399 28.0709C37.6911 26.6532 38.952 25.7255 41.0212 24.9692Z" fill="#FE7D17"/>
<path d="M40.8263 37.3009C40.8263 38.464 39.8122 39.4069 38.5605 39.4069C37.3072 39.4069 36.2925 38.464 36.2925 37.3009H40.8263Z" fill="#D6D6D6"/>
<path d="M47.7138 37.3009C47.7138 38.464 46.6991 39.4069 45.4463 39.4069C44.1936 39.4069 43.1789 38.464 43.1789 37.3009H47.7138Z" fill="#D6D6D6"/>
<path d="M37.3836 41.4982C37.3836 42.6623 36.3684 43.6042 35.1157 43.6042C33.8634 43.6042 32.8488 42.6623 32.8488 41.4982H37.3836Z" fill="#D6D6D6"/>
<path d="M44.2695 41.4982C44.2695 42.6623 43.2554 43.6042 42.0031 43.6042C40.7509 43.6042 39.7352 42.6623 39.7352 41.4982H44.2695Z" fill="#D6D6D6"/>
<path d="M51.1575 41.4982C51.1575 42.6623 50.1418 43.6042 48.8901 43.6042C47.6384 43.6042 46.6232 42.6623 46.6232 41.4982H51.1575Z" fill="#D6D6D6"/>
<path d="M33.9393 45.6037C33.9393 46.7683 32.9252 47.7097 31.6725 47.7097C30.4202 47.7097 29.4061 46.7683 29.4061 45.6037H33.9393Z" fill="#D6D6D6"/>
<path d="M40.8263 45.6037C40.8263 46.7683 39.8122 47.7097 38.5605 47.7097C37.3072 47.7097 36.2925 46.7683 36.2925 45.6037H40.8263Z" fill="#D6D6D6"/>
<path d="M47.7138 45.6037C47.7138 46.7683 46.6991 47.7097 45.4463 47.7097C44.1936 47.7097 43.1789 46.7683 43.1789 45.6037H47.7138Z" fill="#D6D6D6"/>
<path d="M54.5996 45.6037C54.5996 46.7683 53.5855 47.7097 52.3333 47.7097C51.0811 47.7097 50.0658 46.7683 50.0658 45.6037H54.5996Z" fill="#D6D6D6"/>
<path d="M37.3836 49.802C37.3836 50.9661 36.3684 51.908 35.1157 51.908C33.8634 51.908 32.8488 50.9661 32.8488 49.802H37.3836Z" fill="#D6D6D6"/>
<path d="M44.2695 49.802C44.2695 50.9661 43.2554 51.908 42.0031 51.908C40.7509 51.908 39.7352 50.9661 39.7352 49.802H44.2695Z" fill="#D6D6D6"/>
<path d="M51.1575 49.802C51.1575 50.9661 50.1418 51.908 48.8901 51.908C47.6384 51.908 46.6232 50.9661 46.6232 49.802H51.1575Z" fill="#D6D6D6"/>
<path d="M40.8263 53.9075C40.8263 55.0716 39.8122 56.0135 38.5605 56.0135C37.3072 56.0135 36.2925 55.0716 36.2925 53.9075H40.8263Z" fill="#D6D6D6"/>
<path d="M47.7138 53.9075C47.7138 55.0716 46.6991 56.0135 45.4463 56.0135C44.1936 56.0135 43.1789 55.0716 43.1789 53.9075H47.7138Z" fill="#D6D6D6"/>
<path d="M33.615 25.6657C37.2596 25.6657 40.2141 22.9215 40.2141 19.5363C40.2141 16.1512 37.2596 13.407 33.615 13.407C29.9704 13.407 27.0158 16.1512 27.0158 19.5363C27.0158 22.9215 29.9704 25.6657 33.615 25.6657Z" fill="#C2DDEB"/>
<path d="M33.615 23.3715C35.8954 23.3715 37.7441 21.6544 37.7441 19.5363C37.7441 17.4183 35.8954 15.7012 33.615 15.7012C31.3345 15.7012 29.4859 17.4183 29.4859 19.5363C29.4859 21.6544 31.3345 23.3715 33.615 23.3715Z" fill="black"/>
<path d="M34.6547 19.5358C35.4986 19.5358 36.1827 18.9004 36.1827 18.1166C36.1827 17.3328 35.4986 16.6974 34.6547 16.6974C33.8108 16.6974 33.1267 17.3328 33.1267 18.1166C33.1267 18.9004 33.8108 19.5358 34.6547 19.5358Z" fill="white"/>
<path d="M49.7606 25.6666C53.4058 25.6666 56.3608 22.922 56.3608 19.5363C56.3608 16.1506 53.4058 13.406 49.7606 13.406C46.1154 13.406 43.1603 16.1506 43.1603 19.5363C43.1603 22.922 46.1154 25.6666 49.7606 25.6666Z" fill="#C2DDEB"/>
<path d="M49.7606 23.3714C52.041 23.3714 53.8897 21.6544 53.8897 19.5363C53.8897 17.4182 52.041 15.7012 49.7606 15.7012C47.4801 15.7012 45.6315 17.4182 45.6315 19.5363C45.6315 21.6544 47.4801 23.3714 49.7606 23.3714Z" fill="black"/>
<path d="M50.8004 19.5363C51.6445 19.5363 52.3289 18.9007 52.3289 18.1166C52.3289 17.3325 51.6445 16.6969 50.8004 16.6969C49.9562 16.6969 49.2718 17.3325 49.2718 18.1166C49.2718 18.9007 49.9562 19.5363 50.8004 19.5363Z" fill="white"/>
<path d="M55.6503 63.3008C55.6503 64.9168 54.6892 66.2265 53.5074 66.2265C52.3229 66.2265 51.3623 64.9168 51.3623 63.3008C51.3623 64.9168 50.4023 66.2265 49.2177 66.2265C48.0343 66.2265 47.0732 64.9168 47.0732 63.3008C47.0732 64.9168 46.1142 66.2265 44.9292 66.2265C43.7463 66.2265 42.7857 64.9168 42.7857 63.3008C42.7857 61.0163 45.6566 59.1659 49.1986 59.1659C52.7396 59.1659 55.611 61.0163 55.611 63.3008H55.6503Z" fill="#FE7D17"/>
<path d="M41.0229 63.3008C41.0229 64.9168 40.0623 66.2265 38.8789 66.2265C37.6949 66.2265 36.7343 64.9168 36.7343 63.3008C36.7343 64.9168 35.7754 66.2265 34.5903 66.2265C33.4064 66.2265 32.4479 64.9168 32.4479 63.3008C32.4479 64.9168 31.4868 66.2265 30.3028 66.2265C29.1194 66.2265 28.1594 64.9168 28.1594 63.3008C28.1594 61.0163 31.0303 59.1659 34.5717 59.1659C38.1138 59.1659 40.9863 61.0163 40.9863 63.3008H41.0229Z" fill="#FE7D17"/>
</svg>
